<svg id="visual" viewBox="0 0 1080 2340" width="1080" height="2340" xmlns="http://www.w3.org/2000/svg" xmlns:xlink="http://www.w3.org/1999/xlink" version="1.1"><rect x="0" y="0" width="1080" height="2340" fill="#FF6F61"></rect><path d="M0 1032L83 876L166 1075L249 1068L332 1002L415 1065L498 798L582 734L665 792L748 1048L831 976L914 863L997 941L1080 1058L1080 2341L997 2341L914 2341L831 2341L748 2341L665 2341L582 2341L498 2341L415 2341L332 2341L249 2341L166 2341L83 2341L0 2341Z" fill="#222021"></path><path d="M0 1240L83 1253L166 1128L249 974L332 1226L415 1008L498 1227L582 986L665 1138L748 1244L831 1059L914 1196L997 1158L1080 976L1080 2341L997 2341L914 2341L831 2341L748 2341L665 2341L582 2341L498 2341L415 2341L332 2341L249 2341L166 2341L83 2341L0 2341Z" fill="#3a2630"></path><path d="M0 1319L83 1293L166 1415L249 1317L332 1380L415 1213L498 1248L582 1170L665 1364L748 1267L831 1416L914 1298L997 1419L1080 1183L1080 2341L997 2341L914 2341L831 2341L748 2341L665 2341L582 2341L498 2341L415 2341L332 2341L249 2341L166 2341L83 2341L0 2341Z" fill="#542a3e"></path><path d="M0 1438L83 1484L166 1387L249 1416L332 1537L415 1463L498 1550L582 1436L665 1368L748 1539L831 1426L914 1385L997 1546L1080 1592L1080 2341L997 2341L914 2341L831 2341L748 2341L665 2341L582 2341L498 2341L415 2341L332 2341L249 2341L166 2341L83 2341L0 2341Z" fill="#6f2c4a"></path><path d="M0 1758L83 1695L166 1673L249 1656L332 1578L415 1628L498 1631L582 1671L665 1714L748 1647L831 1579L914 1571L997 1665L1080 1635L1080 2341L997 2341L914 2341L831 2341L748 2341L665 2341L582 2341L498 2341L415 2341L332 2341L249 2341L166 2341L83 2341L0 2341Z" fill="#8b2c55"></path><path d="M0 1797L83 1905L166 1845L249 1912L332 1831L415 1861L498 1829L582 1894L665 1886L748 1778L831 1796L914 1792L997 1809L1080 1860L1080 2341L997 2341L914 2341L831 2341L748 2341L665 2341L582 2341L498 2341L415 2341L332 2341L249 2341L166 2341L83 2341L0 2341Z" fill="#a8295f"></path><path d="M0 2102L83 2053L166 2101L249 2018L332 2071L415 2010L498 2057L582 2003L665 2048L748 2104L831 2088L914 2028L997 2057L1080 2027L1080 2341L997 2341L914 2341L831 2341L748 2341L665 2341L582 2341L498 2341L415 2341L332 2341L249 2341L166 2341L83 2341L0 2341Z" fill="#c62368"></path></svg>